#!OML:ASF F:\VICON\USERDATA\INSTALL\rory3\rory3.ASF
:FULLY-SPECIFIED
:DEGREES
172
root 0.8907709541084505 17.82954569772713 42.3606675037033 -3.4797949672266464 -2.4881836825786956 -0.7461797765327036
lfemur 4.984777761871335 -1.5982293261683078 -19.395841607474587
ltibia 51.258003362472294
lfoot -13.212472320397021 -2.4799437812741387
ltoes -6.104208311826875
rfemur -12.951182239999026 3.360461442318241 23.466699140569155
rtibia 34.48071136211075
rfoot -15.607795115013841 -8.098597705329327
rtoes -1.5134990666977997
lowerback 9.38485930484508 -0.596528454619 0.09642523111995249
upperback 0.1115792779802612 -0.6613035645171979 1.7928383827882275
thorax -5.378976435862164 -0.3991912943257116 1.7919917749405867
lowerneck -16.58516370153509 -2.8834758959603177 -1.456967110872999
upperneck 21.32151836622243 -3.6507449439865605 0.25144445309752134
head 9.553441878018894 -1.806648484706939 -0.1638405393562402
lclavicle -3.6163629440609204e-16 5.803562888504859e-16
lhumerus -28.571115854880777 3.5007253088092667 80.91997833673804
lradius 22.801043808785145
lwrist 7.199640635303021
lhand -28.721515476207045 20.93200031394371
lfingers 7.12502
lthumb -2.2634375955203296 50.811135765609215
rclavicle -3.6163629436432353e-16 5.803562888789341e-16
rhumerus -28.789701823325235 -17.57915441607019 -77.66882603288515
rradius 32.83163364804705
rwrist 2.6272997668077003
rhand -17.86841233774177 20.943812579493347
rfingers 7.12502
rthumb 8.901827984369232 -7.427588234585905
173
root 0.9018655758672999 17.828154552650847 42.435890727455906 -3.539590621113471 -2.6387463201543775 -0.4520109559497081
lfemur 5.357265379910027 -1.554524649917544 -19.693748080657752
ltibia 50.752031125663635
lfoot -13.405014868552794 -2.8250847388366234
ltoes -7.436085388696706
rfemur -13.17752222236648 3.411636037470786 23.319653806921664
rtibia 34.14149871757632
rfoot -14.62397030226189 -7.885501053711195
rtoes 0.3015757883636736
lowerback 9.33729677890078 -0.5797418712735831 -0.07584854747597425
upperback 0.09802328133272485 -0.6912556798115492 1.764520042787049
thorax -5.3466774588187524 -0.41828715111777 1.8202100622474153
lowerneck -16.554361434476974 -2.8862799702006314 -1.44488994739892
upperneck 21.436576601794965 -3.658378855067173 0.25428163366530254
head 9.58867816129702 -1.8100360989815434 -0.1630957466424102
lclavicle -3.6163629440381257e-16 5.803562888519071e-16
lhumerus -28.04196803314858 4.295396873049576 81.08821345865707
lradius 22.761064633675307
lwrist 7.553417816350216
lhand -28.81539496862754 21.071605339175385
lfingers 7.12502
lthumb -2.39381624154694 50.82297941404915
rclavicle -3.616362943663192e-16 5.803562888774597e-16
rhumerus -28.709208340085283 -17.377518423858167 -77.38692180341566
rradius 32.85020718133282
rwrist 2.6649723312636064
rhand -17.82174074579622 20.997350866840492
rfingers 7.12502
rthumb 8.971375070469904 -7.293208194291269
174
root 0.8826009307873918 17.840604584293867 41.900410402444756 -3.276606978181351 -2.70590220685015 -0.8264745809944609
lfemur 5.440345139979327 -1.5811918609598061 -19.473459128420206
ltibia 50.32488942855166
lfoot -13.225692716962715 -2.8905164413466427
ltoes -7.577505189912098
rfemur -13.190740806206822 3.583773733889215 23.76493072503015
rtibia 33.15441126528639
rfoot -13.92339707847759 -7.985658612904331
rtoes -0.2673006032506522
lowerback 9.317840802529963 -0.5795543333661468 0.16204936287264382
upperback 0.05898442939324754 -0.640056143330439 1.7723014239735395
thorax -5.387850896341957 -0.3862021097771567 1.7463830039456019
lowerneck -16.494477424778154 -2.8916613198091112 -1.466564131707213
upperneck 21.525399278682766 -3.661153712970998 0.18819847976647808
head 9.589013853600378 -1.8141927601133903 -0.17878258784827913
lclavicle -3.6163629440495795e-16 5.803562888509612e-16
lhumerus -28.69573784199533 3.970133984929517 80.93074030178784
lradius 22.8084632278782
lwrist 7.837047055874891
lhand -28.697000124950712 21.43786310211388
lfingers 7.12502
lthumb -2.286329605496787 51.275479963322326
rclavicle -3.6163629436024093e-16 5.803562888813605e-16
rhumerus -28.54901051130581 -17.321796086832602 -77.311505902883
rradius 32.85073714687268
rwrist 2.890654746580835
rhand -17.798213981693817 21.024494831086507
rfingers 7.12502
rthumb 9.00393319369702 -7.239992175981309
175
root 0.8770057151000171 17.837635581933817 41.58206841122067 -3.398657749614237 -2.9122799508339723 -0.6030332328017292
lfemur 5.921073944057319 -1.664991256769414 -19.82097668207524
ltibia 49.6676278373431
lfoot -13.31235344645975 -2.972907138193685
ltoes -8.316180912077861
rfemur -13.344447775442317 3.7187814386154563 23.71091692925892
rtibia 32.773251669231605
rfoot -13.275357071562716 -8.203939531257484
rtoes 0.5868410972011229
lowerback 9.307724883726161 -0.5493622472608505 -0.03377903591725784
upperback 0.06802034372514516 -0.6437053813877454 1.7181452347589474
thorax -5.341760443277005 -0.38514222674029425 1.7799716946542956
lowerneck -16.465045650673808 -2.8955787200934204 -1.4633031114855053
upperneck 21.663241332021894 -3.67002547522896 0.18088049732746253
head 9.65362830629901 -1.8167749991962694 -0.18371482593901542
lclavicle -3.616362944109842e-16 5.803562888469653e-16
lhumerus -28.485081812357663 4.507461168109348 81.00817135516641
lradius 22.803483776955527
lwrist 7.784727038462038
lhand -28.850041398298846 21.026957542274257
lfingers 7.12502
lthumb -2.5213810979658486 50.64818684637461
rclavicle -3.616362943542383e-16 5.803562888853794e-16
rhumerus -28.304536973659953 -17.16013652530492 -77.44226737273117
rradius 32.82629078885852
rwrist 3.025175258565353
rhand -17.80193167070004 21.045941315956277
rfingers 7.12502
rthumb 8.956706067607051 -7.321244802360794
176
root 0.8936021133365687 17.833185788440247 41.72428187942892 -3.545086346503977 -3.0039043354669457 -0.2491943844127147
lfemur 6.36738858071117 -1.8486915078791213 -20.405943711550147
ltibia 48.99105412591929
lfoot -13.364987029957689 -3.0900168140805206
ltoes -10.175495214543941
rfemur -13.638848256238173 3.733677979110457 23.46919044420347
rtibia 32.58961902397453
rfoot -12.577023516657581 -8.448654408394901
rtoes 1.5877764414108362
lowerback 9.28113940520599 -0.5484267432594363 -0.2656754649371844
upperback 0.10098238729886014 -0.705375788866416 1.6478826756673106
thorax -5.307261307652192 -0.4246144492944211 1.8123304700310718
lowerneck -16.468542764705113 -2.898899945554134 -1.4510553460380022
upperneck 21.696676707286798 -3.6814098840734104 0.19871327477262035
head 9.676359562732008 -1.8207974341804158 -0.18524623854941072
lclavicle -3.61636294414072e-16 5.803562888448577e-16
lhumerus -29.283736854864838 4.103216945402901 80.80088898899844
lradius 22.843809064912413
lwrist 7.81337877325575
lhand -28.99026825304923 20.9758393522496
lfingers 7.12502
lthumb -2.736308358648389 50.48772773623457
rclavicle -3.6163629435257916e-16 5.80356288886459e-16
rhumerus -28.0567332272641 -16.91746028291325 -77.33149838281035
rradius 32.80960268706449
rwrist 2.8261477161828195
rhand -17.773450416999694 21.092421231026883
rfingers 7.12502
rthumb 9.019702297792263 -7.247312370125369
177
root 0.8967740693483406 17.82483008786976 41.645339901780524 -3.7526913393785533 -3.0433996030612436 0.23530673696280413
lfemur 7.001914627069139 -2.11331688795861 -21.105542128661618
ltibia 48.200756128215346
lfoot -13.510518569118911 -3.2299355476825267
ltoes -11.026361507982173
rfemur -13.984750287910366 3.6655437516162186 23.092131903212724
rtibia 32.719391504940006
rfoot -11.991750930319672 -8.676027991423346
rtoes 3.0894431548282615
lowerback 9.304989366541486 -0.5290624523860704 -0.561089441586287
upperback 0.1319072552968161 -0.7448889367566562 1.5477359652453957
thorax -5.22899251100128 -0.41065340484910656 1.8936166098748053
lowerneck -16.4797220192424 -2.906175788584939 -1.4582983354566317
upperneck 21.744528639847466 -3.688466301670031 0.22356260659023736
head 9.698452519092918 -1.8226717803868497 -0.17472314507280143
lclavicle -3.616362944153379e-16 5.803562888441529e-16
lhumerus -29.352407717888788 4.406366685720896 80.81293517649388
lradius 22.833275079411084
lwrist 7.9473472099665425
lhand -28.978899152470916 20.236296098783537
lfingers 7.12502
lthumb -2.8072541222564613 49.54727463227655
rclavicle -3.616362943576039e-16 5.803562888832531e-16
rhumerus -27.97483935439483 -16.960953200487538 -77.32174741619866
rradius 32.821555878412326
rwrist 3.0528306179163147
rhand -17.805967210857727 21.079918125640006
rfingers 7.12502
rthumb 8.948996697823574 -7.485932174403518
178
root 0.9081085087906957 17.822877815725494 41.36729126074402 -3.7611080604368388 -2.9292887444668194 0.346413531333877
lfemur 7.3253663074504995 -2.404456155539538 -21.566338501284445
ltibia 47.54705090747926
lfoot -13.517829481564497 -3.2825124324193435
ltoes -11.991079099249276
rfemur -14.22110826136572 3.5750820171325737 23.006766665673688
rtibia 32.793212720566665
rfoot -11.505620635296385 -8.739092164331232
rtoes 4.714649093587131
lowerback 9.300772842135245 -0.5633623174160614 -0.6893186878574766
upperback 0.11935020174618857 -0.8187635976198941 1.5009741670481385
thorax -5.269281401470131 -0.4531216693713909 1.9022863589227776
lowerneck -16.44850548255206 -2.9145282693800993 -1.466420482272054
upperneck 21.64444822161675 -3.7097448258707137 0.24469362175160586
head 9.663092855912017 -1.829447095610909 -0.16423245501296804
lclavicle -3.61636294419744e-16 5.803562888413286e-16
lhumerus -30.01986076616635 3.9986997980823227 80.63176066437873
lradius 22.823490197740846
lwrist 7.77958629605973
lhand -29.0509416450617 20.732364837
lfingers 7.12502
lthumb -2.8693011590946575 50.15125221905429
rclavicle -3.6163629435300895e-16 5.803562888863723e-16
rhumerus -27.65549539465177 -16.832778624952308 -77.52664503237838
rradius 32.82064253264666
rwrist 3.348585107398516
rhand -17.819817090562466 21.08629284185162
rfingers 7.12502
rthumb 8.976256346136703 -7.553661859223437
